Coordinates
version=1
nRows=22
nColumns=24
inDegrees=yes

Units are S.I. units (second, meters, Newtons, ...)
Angles are in degrees.

endheader
time	pelvis_tilt	pelvis_list	pelvis_rotation	pelvis_tx	pelvis_ty	pelvis_tz	hip_flexion_r	hip_adduction_r	hip_rotation_r	knee_angle_r	ankle_angle_r	subtalar_angle_r	mtp_angle_r	hip_flexion_l	hip_adduction_l	hip_rotation_l	knee_angle_l	ankle_angle_l	subtalar_angle_l	mtp_angle_l	lumbar_extension	lumbar_bending	lumbar_rotation
      5.84000000	     14.79825384	     -4.79184265	     -5.77595295	      1.44044155	      0.73040506	     -0.30551902	    -32.46857703	      1.21653184	     -4.72287586	    -17.41545082	     30.61762250	     28.85720197	      0.00000000	     13.31616802	     -2.08213497	     -9.34912847	    -10.71585765	     20.05015862	      4.56490216	      0.00000000	    -32.33591509	      6.49842541	      9.97593635
      5.84500000	     14.81339376	     -4.30653820	     -5.78611647	      1.44874994	      0.73039290	     -0.30599854	    -32.37868852	      0.53871713	     -5.00705296	    -18.78879079	     29.66442303	     29.07391051	      0.00000000	     13.26375276	     -1.48161872	     -9.21185838	    -11.52826656	     19.42880367	      3.76038024	      0.00000000	    -32.15963145	      5.99646538	      9.69398398
      5.85000000	     14.83978276	     -3.79701345	     -5.73273674	      1.45706417	      0.73046062	     -0.30655380	    -32.24070616	     -0.13517538	     -5.34911954	    -20.25383961	     28.49663236	     29.28887566	      0.00000000	     13.22023670	     -0.83781598	     -8.91388629	    -12.44057534	     18.76156066	      2.86604910	      0.00000000	    -31.99064667	      5.49920168	      9.35005763
      5.85500000	     14.87191262	     -3.26418348	     -5.65084657	      1.46536405	      0.73061370	     -0.30713253	    -32.03629733	     -0.81254100	     -5.67238691	    -21.82520878	     27.13471731	     29.41342501	      0.00000000	     13.18129910	     -0.16608268	     -8.55787026	    -13.42630011	     18.07197874	      1.98952240	      0.00000000	    -31.82972388	      4.98581394	      8.97529284
      5.86000000	     14.91641605	     -2.72004481	     -5.54344338	      1.47362068	      0.73084656	     -0.30775638	    -31.77208948	     -1.49391630	     -6.02884766	    -23.49329371	     25.59864672	     29.44400479	      0.00000000	     13.14846043	      0.52607043	     -8.12765440	    -14.49408510	     17.38172696	      1.11152993	      0.00000000	    -31.69421560	      4.46881056	      8.64409220
      5.86500000	     14.96277624	     -2.16216576	     -5.42453634	      1.48184899	      0.73116280	     -0.30838850	    -31.43215317	     -2.17884654	     -6.35021918	    -25.26273944	     23.85465732	     29.34260293	      0.00000000	     13.10530581	      1.23288170	     -7.69638486	    -15.57865180	     16.71173239	      0.31677241	      0.00000000	    -31.57105329	      3.93738492	      8.30790025
      5.87000000	     15.00872421	     -1.59443760	     -5.30200021	      1.49002583	      0.73155971	     -0.30903122	    -31.01013030	     -2.86958911	     -6.63916443	    -27.12606834	     21.93137834	     29.08784118	      0.00000000	     13.04661268	      1.95149124	     -7.26976274	    -16.65237713	     16.06640223	     -0.39873887	      0.00000000	    -31.46106492	      3.40082565	      7.97634375
      5.87500000	     15.05379919	     -1.02956838	     -5.17874713	      1.49814531	      0.73203217	     -0.30967127	    -30.50762519	     -3.55551874	     -6.89058560	    -29.06976119	     19.81344661	     28.67787544	      0.00000000	     12.96615806	      2.66751319	     -6.85335745	    -17.69764806	     15.48831215	     -1.02893989	      0.00000000	    -31.36733857	      2.86299895	      7.67565069
      5.88000000	     15.09907814	     -0.47200851	     -5.06847026	      1.50619341	      0.73258143	     -0.31029035	    -29.92132491	     -4.23754548	     -7.09571288	    -31.08741650	     17.54485424	     28.07505399	      0.00000000	     12.85326917	      3.36991407	     -6.49203045	    -18.69173623	     14.99568440	     -1.52470693	      0.00000000	    -31.29447945	      2.32669194	      7.40792244
      5.88500000	     15.12837054	      0.07328965	     -4.96887505	      1.51416507	      0.73318249	     -0.31089976	    -29.23594243	     -4.90769292	     -7.24768809	    -33.16431563	     15.15817353	     27.27523200	      0.00000000	     12.71887602	      4.06161052	     -6.14489680	    -19.61566292	     14.60169218	     -1.96693278	      0.00000000	    -31.22363597	      1.79799747	      7.17115371
      5.89000000	     15.15670727	      0.61032481	     -4.88602098	      1.52204141	      0.73384633	     -0.31147331	    -28.46925549	     -5.57306269	     -7.34968395	    -35.28600519	     12.70253848	     26.26460906	      0.00000000	     12.54558037	      4.73338150	     -5.88131340	    -20.46139353	     14.30247087	     -2.24945452	      0.00000000	    -31.17565838	      1.26834361	      6.97164003
      5.89500000	     15.15291850	      1.11992289	     -4.82406204	      1.52982159	      0.73453337	     -0.31201416	    -27.58806903	     -6.20537719	     -7.36070017	    -37.43968878	     10.22400019	     25.02741832	      0.00000000	     12.35822143	      5.37587985	     -5.63648320	    -21.21206669	     14.14574468	     -2.49551131	      0.00000000	    -31.11458696	      0.76191879	      6.79727643
      5.90000000	     15.13293410	      1.60940210	     -4.77885417	      1.53748440	      0.73525459	     -0.31251092	    -26.61414793	     -6.81326228	     -7.31620840	    -39.61170303	      7.80491821	     23.57843779	      0.00000000	     12.14413033	      5.98749637	     -5.46081010	    -21.87142574	     14.08211564	     -2.62185479	      0.00000000	    -31.06103850	      0.26692897	      6.65764309
      5.90500000	     15.10863585	      2.08826825	     -4.75146084	      1.54503045	      0.73600802	     -0.31296645	    -25.56785089	     -7.41075071	     -7.23948704	    -41.78881371	      5.52194675	     21.94319172	      0.00000000	     11.88668341	      6.58124227	     -5.35338150	    -22.42748181	     14.10744130	     -2.65543646	      0.00000000	    -31.02733194	     -0.22554920	      6.54195369
      5.91000000	     15.01450521	      2.49820485	     -4.73414379	      1.55244944	      0.73674397	     -0.31336490	    -24.38147032	     -7.90297312	     -7.01995788	    -43.94155943	      3.36096479	     20.14970339	      0.00000000	     11.66777346	      7.09103650	     -5.26578201	    -22.91970816	     14.27749913	     -2.60257256	      0.00000000	    -30.94233548	     -0.65051998	      6.46072144
      5.91500000	     14.97654420	      2.95707452	     -4.74003647	      1.55979235	      0.73753936	     -0.31372333	    -23.21509736	     -8.45609675	     -6.82983796	    -46.06554652	      1.52764125	     18.22982216	      0.00000000	     11.32501480	      7.65917687	     -5.23727163	    -23.26827626	     14.51465408	     -2.53718289	      0.00000000	    -30.92883716	     -1.13929344	      6.35053772
      5.92000000	     14.85433536	      3.32821211	     -4.74151344	      1.56699949	      0.73831000	     -0.31403461	    -21.90071787	     -8.87405260	     -6.50991313	    -48.15018872	     -0.14073048	     16.24120440	      0.00000000	     11.03440045	      8.12058789	     -5.22209929	    -23.54835164	     14.84864821	     -2.35900866	      0.00000000	    -30.85184303	     -1.53059993	      6.26069029
      5.92500000	     14.75511790	      3.70807084	     -4.74655341	      1.57411706	      0.73910986	     -0.31432018	    -20.57934567	     -9.29723429	     -6.20972140	    -50.18914412	     -1.44704718	     14.20211654	      0.00000000	     10.67317307	      8.59573253	     -5.23181961	    -23.72969067	     15.23316574	     -2.17183936	      0.00000000	    -30.81483999	     -1.93479930	      6.15808611
      5.93000000	     14.67566571	      4.08187750	     -4.75371366	      1.58115420	      0.73995441	     -0.31455570	    -19.25693725	     -9.68444022	     -5.86083028	    -52.15581951	     -2.40940249	     12.13868018	      0.00000000	     10.23950223	      9.06870612	     -5.25087030	    -23.80495834	     15.65451176	     -2.01200033	      0.00000000	    -30.81086551	     -2.33276836	      5.99349844
      5.93500000	     14.55826060	      4.40911723	     -4.74085635	      1.58809776	      0.74078851	     -0.31479970	    -17.86423583	    -10.00607564	     -5.51355513	    -54.06183214	     -3.11881092	     10.09707859	      0.00000000	      9.81394309	      9.49107507	     -5.25647863	    -23.82156920	     16.12078866	     -1.77602002	      0.00000000	    -30.78434524	     -2.67086395	      5.85561040
      5.94000000	     14.44717233	      4.72917178	     -4.71761607	      1.59499509	      0.74165526	     -0.31499881	    -16.46833584	    -10.29328693	     -5.15477137	    -55.88141487	     -3.51649739	      8.09329559	      0.00000000	      9.33415794	      9.90613545	     -5.25607997	    -23.74663813	     16.60033253	     -1.53758511	      0.00000000	    -30.76710706	     -2.99927613	      5.64845369
      5.94500000	     14.36158404	      5.04620326	     -4.67276133	      1.60184507	      0.74257201	     -0.31520674	    -15.09699470	    -10.55913004	     -4.80698768	    -57.60703419	     -3.63320160	      6.16767573	      0.00000000	      8.77897022	     10.32823955	     -5.22128039	    -23.57670146	     17.06336950	     -1.31567912	      0.00000000	    -30.78928232	     -3.30735114	      5.37909545
